<?xml version="1.0" encoding="utf-8"?>
<!-- Generator: Adobe Illustrator 16.0.0, SVG Export Plug-In . SVG Version: 6.00 Build 0)  -->
<!DOCTYPE svg PUBLIC "-//W3C//DTD SVG 1.1//EN" "http://www.w3.org/Graphics/SVG/1.1/DTD/svg11.dtd">
<svg version="1.1" id="Layer_1" xmlns="http://www.w3.org/2000/svg" xmlns:xlink="http://www.w3.org/1999/xlink" x="0px" y="0px"
	 width="900px" height="900px" viewBox="0 0 900 900" enable-background="new 0 0 900 900" xml:space="preserve">
<g>
	<g>
		<g>
			<path fill="none" stroke="#2F2F2F" stroke-width="20" stroke-miterlimit="10" d="M190,800c5.5,0,10-4.5,10-10v-80
				c0-5.5-4.5-10-10-10h-80c-5.5,0-10,4.5-10,10v80c0,5.5,4.5,10,10,10H190z"/>
		</g>
		<g>
			<line fill="none" stroke="#2F2F2F" stroke-width="20" stroke-miterlimit="10" x1="300" y1="800" x2="400" y2="800"/>
		</g>
		<g>
			<path fill="none" stroke="#2F2F2F" stroke-width="20" stroke-miterlimit="10" d="M200,510c0-5.5-4.5-10-10-10h-80
				c-5.5,0-10,4.5-10,10v80c0,5.5,4.5,10,10,10h80c5.5,0,10-4.5,10-10V510z"/>
		</g>
		<g>
			<line fill="none" stroke="#2F2F2F" stroke-width="20" stroke-miterlimit="10" x1="300" y1="600" x2="400" y2="600"/>
		</g>
		<g>
			<path fill="none" stroke="#2F2F2F" stroke-width="20" stroke-miterlimit="10" d="M200,310c0-5.5-4.5-10-10-10h-80
				c-5.5,0-10,4.5-10,10v80c0,5.5,4.5,10,10,10h80c5.5,0,10-4.5,10-10V310z"/>
		</g>
		<g>
			<path fill="none" stroke="#2F2F2F" stroke-width="20" stroke-miterlimit="10" d="M800,190c0,5.5-4.5,10-10,10H110
				c-5.5,0-10-4.5-10-10v-80c0-5.5,4.5-10,10-10h680c5.5,0,10,4.5,10,10V190z"/>
		</g>
		<g>
			<line fill="none" stroke="#2F2F2F" stroke-width="20" stroke-miterlimit="10" x1="300" y1="400" x2="400" y2="400"/>
		</g>
		<g>
			<path fill="none" stroke="#2F2F2F" stroke-width="20" stroke-miterlimit="10" d="M600,510c0-5.5-4.5-10-10-10h-80
				c-5.5,0-10,4.5-10,10v80c0,5.5,4.5,10,10,10h80c5.5,0,10-4.5,10-10V510z"/>
		</g>
		<g>
			<line fill="none" stroke="#2F2F2F" stroke-width="20" stroke-miterlimit="10" x1="700" y1="600" x2="800" y2="600"/>
		</g>
		<g>
			<path fill="none" stroke="#2F2F2F" stroke-width="20" stroke-miterlimit="10" d="M600,310c0-5.5-4.5-10-10-10h-80
				c-5.5,0-10,4.5-10,10v80c0,5.5,4.5,10,10,10h80c5.5,0,10-4.5,10-10V310z"/>
		</g>
		<g>
			<line fill="none" stroke="#2F2F2F" stroke-width="20" stroke-miterlimit="10" x1="700" y1="400" x2="800" y2="400"/>
		</g>
	</g>
</g>
</svg>
