<?xml version="1.0" encoding="utf-8"?>
<!-- Generator: Adobe Illustrator 16.0.0, SVG Export Plug-In . SVG Version: 6.00 Build 0)  -->
<!DOCTYPE svg PUBLIC "-//W3C//DTD SVG 1.1//EN" "http://www.w3.org/Graphics/SVG/1.1/DTD/svg11.dtd">
<svg version="1.1" id="Layer_1" xmlns="http://www.w3.org/2000/svg" xmlns:xlink="http://www.w3.org/1999/xlink" x="0px" y="0px"
	 width="900px" height="900px" viewBox="0 0 900 900" enable-background="new 0 0 900 900" xml:space="preserve">
<g>
	<path fill="none" stroke="#E71E63" stroke-width="20" stroke-miterlimit="10" d="M500,600h90c5.5,0,10-4.5,10-10v-80
		c0-5.5-4.5-10-10-10h-80c-5.5,0-10-4.5-10-10V210c0-5.5,4.5-10,10-10h280c5.5,0,10,4.5,10,10v80c0,5.5-4.5,10-10,10H510
		c-5.5,0-10,4.5-10,10v80c0,5.5,4.5,10,10,10h180c5.5,0,10,4.5,10,10v280c0,5.5-4.5,10-10,10H510c-5.5,0-10,4.5-10,10v80
		c0,5.5,0,5.5,0,0V110c0-5.5-4.5-10-10-10h-80c-5.5,0-10,4.5-10,10v180c0,5.5-4.5,10-10,10h-80c-5.5,0-10,4.5-10,10v80
		c0,5.5,4.5,10,10,10h80c5.5,0,10,4.5,10,10v280c0,5.5-4.5,10-10,10H110c-5.5,0-10-4.5-10-10v-80c0-5.5,4.5-10,10-10h280
		c5.5,0,10-4.5,10-10v-80c0-5.5-4.5-10-10-10H210c-5.5,0-10-4.5-10-10V210c0-5.5,4.5-10,10-10h180c5.5,0,10-4.5,10-10v-80
		c0-5.5,0-5.5,0,0v680c0,5.5,4.5,10,10,10h90"/>
</g>
</svg>
