<?xml version="1.0" encoding="utf-8"?>
<!-- Generator: Adobe Illustrator 16.0.0, SVG Export Plug-In . SVG Version: 6.00 Build 0)  -->
<!DOCTYPE svg PUBLIC "-//W3C//DTD SVG 1.1//EN" "http://www.w3.org/Graphics/SVG/1.1/DTD/svg11.dtd">
<svg version="1.1" id="Layer_1" xmlns="http://www.w3.org/2000/svg" xmlns:xlink="http://www.w3.org/1999/xlink" x="0px" y="0px"
	 width="900px" height="900px" viewBox="0 0 900 900" enable-background="new 0 0 900 900" xml:space="preserve">
<g>
	<g>
		<g>
			<path fill="none" stroke="#8AC440" stroke-width="20" stroke-miterlimit="10" d="M790,800c5.5,0,10-4.5,10-10V110
				c0-5.5-4.5-10-10-10H110c-5.5,0-10,4.5-10,10v680c0,5.5,4.5,10,10,10H790z"/>
		</g>
		<g>
			<path fill="none" stroke="#8AC440" stroke-width="20" stroke-miterlimit="10" d="M100,400h290c5.5,0,10,4.5,10,10v80
				c0,5.5,4.5,10,10,10h380c5.5,0,5.5,0,0,0H610c-5.5,0-10,4.5-10,10v180c0,5.5-4.5,10-10,10H410c-5.5,0-10-4.5-10-10V510
				c0-5.5,0-14.5,0-20V100"/>
		</g>
		<g>
			<path fill="none" stroke="#8AC440" stroke-width="20" stroke-miterlimit="10" d="M290,800c5.5,0,10-4.5,10-10v-80
				c0-5.5,4.5-10,10-10h80c5.5,0,10,4.5,10,10v80c0,5.5,4.5,10,10,10h80c5.5,0,10-4.5,10-10v-80c0-5.5,4.5-10,10-10h80
				c5.5,0,10,4.5,10,10v80c0,5.5,4.5,10,10,10h80c5.5,0,10-4.5,10-10v-80c0-5.5,4.5-10,10-10h80c5.5,0,5.5,0,0,0H110
				c-5.5,0-5.5,0,0,0h80c5.5,0,10,4.5,10,10v80c0,5.5,4.5,10,10,10H290z"/>
		</g>
	</g>
</g>
</svg>
