<?xml version="1.0" encoding="utf-8"?>
<!-- Generator: Adobe Illustrator 16.0.0, SVG Export Plug-In . SVG Version: 6.00 Build 0)  -->
<!DOCTYPE svg PUBLIC "-//W3C//DTD SVG 1.1//EN" "http://www.w3.org/Graphics/SVG/1.1/DTD/svg11.dtd">
<svg version="1.1" id="Layer_1" xmlns="http://www.w3.org/2000/svg" xmlns:xlink="http://www.w3.org/1999/xlink" x="0px" y="0px"
	 width="182.844px" height="50.08px" viewBox="0 0 182.844 50.08" enable-background="new 0 0 182.844 50.08" xml:space="preserve">
<g>
	<path fill="none" d="M27.61,17.126c-0.032,0.54-0.055,1.033-0.067,1.479s-0.019,0.834-0.019,1.166c0,0.333,0,0.589,0,0.767v0.179
		c0.639-1.53,1.227-3.055,1.767-4.574l-1.543-0.846c-0.004,0.051-0.009,0.105-0.013,0.146C27.683,16.025,27.642,16.585,27.61,17.126
		z"/>
	<path fill="none" d="M33.48,19.785c0.021-0.059,0.048-0.145,0.085-0.283c0.073-0.274,0.181-0.564,0.291-0.855l-0.365-0.201
		c0,0.178-0.003,0.479-0.008,0.917C33.481,19.502,33.481,19.643,33.48,19.785z"/>
	<path fill="none" d="M19.675,23.729c-0.404,1.017-0.712,1.891-0.923,2.623c-0.12,0.417-0.197,0.805-0.249,1.176l0.469,0.477
		c-0.166,0.177-0.344,0.329-0.513,0.499c0.011,0.129,0.019,0.256,0.055,0.385c0.053,0.183,0.149,0.348,0.29,0.494
		s0.34,0.266,0.598,0.357s0.592,0.139,1.002,0.139c0.211,0,0.419-0.047,0.625-0.141c0.205-0.094,0.402-0.216,0.589-0.366
		c0.188-0.151,0.367-0.322,0.537-0.515s0.325-0.393,0.466-0.6c0.329-0.479,0.627-1.02,0.897-1.621
		c-0.036-0.166-0.065-0.429-0.089-0.789s-0.042-0.91-0.053-1.648s-0.024-1.344-0.036-1.816c-0.012-0.473-0.021-0.904-0.027-1.295
		c-0.006-0.389-0.015-0.709-0.026-0.957s-0.023-0.365-0.035-0.354c-0.773,0.378-1.462,0.877-2.065,1.498
		C20.583,21.894,20.079,22.712,19.675,23.729z"/>
	<path fill="none" d="M8.593,24.309c0.43-0.333,0.85-0.779,1.262-1.341s0.618-1.025,0.618-1.393c0-0.516-0.097-0.939-0.291-1.271
		c-0.194-0.332-0.433-0.498-0.715-0.498c-0.506,0-0.938,0.092-1.297,0.275c-0.359,0.183-0.659,0.42-0.9,0.713
		c-0.241,0.292-0.435,0.624-0.582,0.996c-0.147,0.373-0.318,0.834-0.512,1.385c-0.194,0.549-0.303,1.002-0.327,1.357
		s-0.035,0.658-0.035,0.91c0.423,0,0.885-0.105,1.385-0.317C7.699,24.914,8.164,24.641,8.593,24.309z"/>
	<path fill="#555655" d="M14.217,28.213c0-0.194,0.024-0.392,0.037-0.588c-0.423,0.282-0.856,0.555-1.311,0.809
		c-0.738,0.413-1.497,0.757-2.276,1.031c-0.779,0.275-1.521,0.413-2.224,0.413c-0.224,0-0.433-0.023-0.626-0.069
		s-0.379-0.126-0.556-0.24s-0.35-0.274-0.521-0.481c-0.17-0.206-0.344-0.465-0.521-0.773c1.022-0.275,1.97-0.659,2.845-1.152
		c0.875-0.492,1.629-1.054,2.263-1.684c0.634-0.631,1.189-1.387,1.665-2.27c0.476-0.882,0.713-1.678,0.713-2.389
		c0-0.667-0.118-1.27-0.352-1.809c-0.235-0.538-0.561-0.998-0.977-1.378c-0.417-0.38-0.907-0.676-1.47-0.887
		c-0.563-0.21-1.173-0.315-1.83-0.315c-0.804,0-1.536,0.141-2.194,0.425c-0.659,0.283-1.253,0.665-1.784,1.146
		c-0.53,0.479-0.994,1.035-1.39,1.665c-0.396,0.63-0.726,1.292-0.987,1.986c-0.263,0.694-0.516,1.489-0.761,2.386
		c-0.245,0.896-0.367,1.668-0.367,2.316c0,0.99,0.137,1.936,0.41,2.836c0.274,0.9,0.684,1.693,1.231,2.379
		c0.547,0.686,1.231,1.232,2.051,1.637c0.821,0.406,1.778,0.609,2.873,0.609c0.704,0,1.398-0.082,2.084-0.245
		s1.348-0.38,1.986-0.651s1.248-0.582,1.828-0.932c0.306-0.186,0.6-0.371,0.884-0.56c-0.183-0.357-0.343-0.732-0.455-1.144
		C14.308,29.617,14.217,28.926,14.217,28.213z M5.85,24.533c0.023-0.355,0.132-0.809,0.327-1.357
		c0.194-0.551,0.364-1.012,0.512-1.385c0.147-0.372,0.341-0.704,0.582-0.996c0.241-0.293,0.541-0.53,0.9-0.713
		c0.359-0.184,0.791-0.275,1.297-0.275c0.282,0,0.521,0.166,0.715,0.498c0.194,0.332,0.291,0.756,0.291,1.271
		c0,0.367-0.206,0.831-0.618,1.393s-0.832,1.008-1.262,1.341c-0.429,0.332-0.894,0.604-1.394,0.816
		c-0.5,0.212-0.962,0.317-1.385,0.317C5.814,25.191,5.826,24.888,5.85,24.533z"/>
	<path fill="#555655" d="M18.503,27.528c-0.039,0.28-0.068,0.555-0.068,0.81c0,0.055,0.019,0.111,0.024,0.166
		c0.169-0.17,0.347-0.322,0.513-0.499L18.503,27.528z"/>
	<path fill="#555655" d="M20.668,17.687c-0.785,0.332-1.55,0.826-2.294,1.48s-1.342,1.38-1.793,2.177
		c-0.451,0.798-0.861,1.562-1.23,2.292c-0.369,0.732-0.65,1.488-0.844,2.267c-0.144,0.58-0.216,1.153-0.253,1.723
		c-0.013,0.196-0.037,0.394-0.037,0.588c0,0.713,0.091,1.403,0.272,2.071c0.112,0.411,0.272,0.786,0.455,1.144
		c0.114,0.224,0.23,0.445,0.372,0.647c0.369,0.525,0.832,0.947,1.389,1.265s1.216,0.476,1.978,0.476c0.541,0,1.078-0.09,1.613-0.271
		c0.535-0.18,1.064-0.42,1.587-0.719c0.523-0.298,1.028-0.649,1.516-1.054s0.949-0.83,1.384-1.278
		c0.288,0.722,0.626,1.301,1.017,1.736c0.39,0.436,0.779,0.769,1.169,0.998c0.39,0.23,0.75,0.383,1.08,0.457
		c0.33,0.076,0.579,0.113,0.747,0.113c0.285,0,0.599-0.053,0.942-0.159c0.343-0.105,0.696-0.242,1.059-0.411
		c0.363-0.168,0.732-0.36,1.107-0.578s0.732-0.439,1.072-0.663c0.323-0.214,0.65-0.448,0.977-0.687
		c-0.235-0.957-0.385-2.179-0.45-3.664c-0.206,0.158-0.415,0.323-0.615,0.471c-0.281,0.201-0.571,0.398-0.87,0.594
		s-0.595,0.369-0.888,0.523c-0.293,0.153-0.571,0.274-0.835,0.363c-0.264,0.088-0.507,0.133-0.729,0.133
		c-0.229,0-0.419-0.071-0.573-0.213c-0.154-0.143-0.277-0.336-0.368-0.578c-0.091-0.243-0.157-0.519-0.197-0.826
		c-0.041-0.309-0.06-0.635-0.06-0.979c0-0.271,0.018-0.553,0.055-0.844s0.082-0.574,0.137-0.854
		c0.055-0.278,0.113-0.536,0.174-0.773c0.061-0.236,0.122-0.438,0.183-0.604c0.28-0.759,0.932-2.198,1.956-4.32
		c0.351-0.725,0.672-1.455,0.969-2.189l-2.549-1.398c-0.541,1.52-1.128,3.044-1.767,4.574v-0.179c0-0.178,0-0.434,0-0.767
		c0-0.332,0.006-0.721,0.019-1.166s0.035-0.938,0.067-1.479c0.032-0.541,0.073-1.102,0.125-1.684
		c0.004-0.041,0.009-0.096,0.013-0.146l-4.085-2.239c-0.285,1.155-0.446,2.49-0.481,4.005
		C22.291,17.146,21.453,17.354,20.668,17.687z M23.287,20.13c0.012,0.248,0.021,0.568,0.026,0.957
		c0.006,0.391,0.015,0.822,0.027,1.295c0.012,0.473,0.024,1.078,0.036,1.816s0.029,1.288,0.053,1.648s0.053,0.623,0.089,0.789
		c-0.27,0.602-0.569,1.143-0.897,1.621c-0.141,0.207-0.296,0.407-0.466,0.6s-0.349,0.363-0.537,0.515
		c-0.188,0.15-0.384,0.272-0.589,0.366c-0.206,0.094-0.414,0.141-0.625,0.141c-0.41,0-0.744-0.047-1.002-0.139
		s-0.457-0.211-0.598-0.357s-0.237-0.312-0.29-0.494c-0.037-0.129-0.044-0.256-0.055-0.385c-0.005-0.055-0.024-0.111-0.024-0.166
		c0-0.255,0.029-0.529,0.068-0.81c0.052-0.371,0.128-0.759,0.249-1.176c0.211-0.732,0.519-1.606,0.923-2.623
		s0.908-1.835,1.512-2.454c0.604-0.621,1.292-1.12,2.065-1.498C23.264,19.765,23.275,19.882,23.287,20.13z"/>
	<path fill="#555655" d="M33.48,19.785c-0.009,0.857-0.015,1.717-0.015,2.576c0,0.999,0,2.151,0,3.457
		c0,0.645,0.013,1.25,0.038,1.818c0.065,1.485,0.215,2.707,0.45,3.664c0.042,0.172,0.086,0.338,0.134,0.494
		c0.415,1.348,1.065,2.021,1.952,2.021c0.537,0,1.085-0.215,1.645-0.643c0.56-0.428,1.102-1.025,1.627-1.793
		c0.525-0.768,1.018-1.682,1.479-2.742s0.86-2.229,1.199-3.506L42.5,25.22c0,0.633,0.006,1.283,0.018,1.951s0.032,1.318,0.062,1.951
		s0.07,1.232,0.123,1.801s0.12,1.066,0.202,1.494s0.185,0.768,0.308,1.02s0.267,0.379,0.431,0.379c0.469,0,0.938-0.158,1.406-0.475
		s0.932-0.756,1.389-1.318s0.902-1.234,1.336-2.014s0.85-1.637,1.248-2.574c0.012,0.727,0.138,1.345,0.378,1.855
		s0.562,0.926,0.967,1.246s0.873,0.554,1.406,0.701c0.533,0.148,1.099,0.223,1.696,0.223c0.762,0,1.556-0.154,2.382-0.463
		c0.1-0.037,0.196-0.09,0.295-0.131l-10.061-5.516l-0.966,2.227l-0.264,0.016l0.429-2.682l-5.461-2.994
		c-0.229,0.594-0.479,1.264-0.754,2.029c-0.441,1.225-0.92,2.436-1.438,3.631l-0.229,0.016l0.905-6.507l-4.452-2.44
		c-0.109,0.291-0.218,0.581-0.291,0.855C33.528,19.64,33.501,19.726,33.48,19.785z"/>
	<path fill="#555655" d="M33.432,19.769c-0.004,0.11,0.014,0.107,0.048,0.016c0.001-0.142,0.001-0.282,0.002-0.423
		c0.005-0.438,0.008-0.739,0.008-0.917l-0.011-0.006c-0.012,0.341-0.023,0.659-0.034,0.948
		C33.443,19.46,33.438,19.587,33.432,19.769z"/>
	<path fill="#555655" d="M58.821,33.505c0.533,0.23,1.081,0.346,1.644,0.346c0.313,0,0.626-0.04,0.94-0.101l-4.924-2.7
		c0.24,0.566,0.543,1.06,0.926,1.461C57.816,32.943,58.288,33.275,58.821,33.505z"/>
</g>
<g>
	<path fill="none" d="M102.459,9.095c-0.221,0.879-0.383,1.741-0.485,2.584c-0.103,0.844-0.184,1.604-0.246,2.28
		s-0.105,1.158-0.13,1.443c-0.051,0.582-0.093,1.144-0.125,1.683c-0.032,0.541-0.055,1.033-0.067,1.479
		c-0.013,0.445-0.019,0.835-0.019,1.167s0,0.588,0,0.766v0.178c0.652-1.561,1.252-3.115,1.801-4.665
		c0.229-0.66,0.455-1.349,0.678-2.065s0.445-1.429,0.665-2.135c0.22-0.705,0.406-1.404,0.558-2.096
		c0.152-0.691,0.258-1.349,0.319-1.971c0.003-0.031,0.004-0.059,0.007-0.089l-2.266-1.243c-0.023,0.084-0.055,0.152-0.077,0.24
		C102.885,7.4,102.68,8.214,102.459,9.095z"/>
	<path fill="none" d="M152.627,42.037c0.105-0.34,0.182-0.713,0.232-1.119c0.049-0.404,0.109-0.906,0.184-1.504
		c0.072-0.596,0.119-0.977,0.139-1.139c-0.826,0.586-1.639,1.527-2.436,2.822s-1.43,2.609-1.898,3.945
		c-0.387,1.113-0.188,1.67,0.598,1.67c0.281,0,0.529-0.035,0.746-0.105s0.42-0.197,0.607-0.379s0.352-0.377,0.492-0.588
		s0.289-0.516,0.447-0.914s0.303-0.789,0.432-1.17S152.452,42.67,152.627,42.037z"/>
	<path fill="none" d="M93.266,29.701c0.258,0.092,0.592,0.137,1.002,0.137c0.211,0,0.419-0.047,0.625-0.14
		c0.205-0.094,0.402-0.216,0.589-0.366s0.367-0.322,0.537-0.515s0.325-0.392,0.466-0.601c0.329-0.478,0.627-1.018,0.897-1.621
		c-0.036-0.165-0.065-0.428-0.089-0.788s-0.042-0.91-0.053-1.648s-0.024-1.345-0.036-1.817c-0.012-0.473-0.021-0.903-0.027-1.293
		c-0.006-0.391-0.015-0.709-0.026-0.957s-0.023-0.367-0.035-0.355c-0.773,0.379-1.462,0.879-2.065,1.498
		c-0.604,0.621-1.107,1.439-1.512,2.455s-0.712,1.891-0.923,2.623s-0.316,1.395-0.316,1.984c0,0.184,0.026,0.367,0.079,0.551
		s0.149,0.349,0.29,0.496C92.809,29.49,93.008,29.609,93.266,29.701z"/>
	<path fill="none" d="M125.022,27.964c-0.503,0.535-1.022,1.039-1.556,1.515c0.081,0.044,0.166,0.11,0.254,0.202
		c0.17,0.178,0.366,0.374,0.589,0.587c0.223,0.214,0.48,0.409,0.773,0.587s0.627,0.266,1.002,0.266c0.457,0,0.834-0.076,1.133-0.23
		s0.537-0.358,0.713-0.613c0.176-0.254,0.299-0.551,0.369-0.889c0.07-0.337,0.105-0.689,0.105-1.057c0-0.32-0.021-0.646-0.062-0.977
		c-0.041-0.332-0.035-0.744,0.018-1.236c0.053-0.491,0.041-0.87-0.035-1.137c-0.076-0.266-0.143-0.494-0.201-0.684l-3.298,3.467
		L125.022,27.964z"/>
	<path fill="none" d="M114.643,24.269c0.43-0.332,0.85-0.779,1.262-1.341s0.618-1.025,0.618-1.392c0-0.516-0.097-0.939-0.291-1.272
		c-0.194-0.333-0.433-0.499-0.715-0.499c-0.506,0-0.938,0.092-1.297,0.275s-0.659,0.422-0.9,0.713
		c-0.241,0.293-0.435,0.625-0.582,0.998c-0.147,0.371-0.318,0.834-0.512,1.383c-0.194,0.551-0.303,1.003-0.327,1.357
		c-0.023,0.355-0.035,0.66-0.035,0.912c0.423,0,0.885-0.106,1.385-0.318C113.749,24.874,114.213,24.601,114.643,24.269z"/>
	<path fill="#555655" d="M94.159,33.505c0.535-0.181,1.064-0.42,1.587-0.719s1.028-0.65,1.516-1.055s0.949-0.83,1.384-1.278
		c0.288,0.722,0.626,1.301,1.017,1.736c0.39,0.436,0.779,0.769,1.169,0.999c0.39,0.229,0.75,0.383,1.08,0.457
		c0.33,0.074,0.579,0.111,0.747,0.111c0.285,0,0.599-0.053,0.942-0.158s0.696-0.242,1.059-0.41s0.732-0.361,1.107-0.579
		s0.732-0.438,1.072-0.663c0.608-0.402,1.224-0.86,1.845-1.347c-0.251-0.45-0.47-0.927-0.629-1.45
		c-0.178-0.586-0.276-1.198-0.338-1.822c-0.329,0.262-0.651,0.508-0.965,0.738c-0.281,0.201-0.571,0.4-0.87,0.595
		s-0.595,0.369-0.888,0.522c-0.293,0.154-0.571,0.275-0.835,0.363c-0.264,0.089-0.507,0.133-0.729,0.133
		c-0.229,0-0.419-0.07-0.573-0.213c-0.154-0.143-0.277-0.334-0.368-0.577s-0.157-0.519-0.197-0.827
		c-0.041-0.308-0.06-0.633-0.06-0.977c0-0.273,0.018-0.555,0.055-0.845s0.082-0.575,0.137-0.854
		c0.055-0.278,0.113-0.536,0.174-0.772c0.061-0.237,0.122-0.439,0.183-0.605c0.28-0.758,0.932-2.197,1.956-4.318
		c0.67-1.387,1.242-2.787,1.717-4.204c0.475-1.416,0.955-2.849,1.44-4.298c0.206-0.614,0.362-1.254,0.486-1.91l-2.962-1.624
		c-0.003,0.03-0.004,0.058-0.007,0.089c-0.061,0.622-0.167,1.279-0.319,1.971c-0.152,0.691-0.338,1.391-0.558,2.096
		c-0.22,0.706-0.441,1.418-0.665,2.135s-0.45,1.405-0.678,2.065c-0.549,1.55-1.149,3.104-1.801,4.665v-0.178
		c0-0.178,0-0.434,0-0.766s0.006-0.722,0.019-1.167c0.013-0.446,0.035-0.938,0.067-1.479c0.032-0.539,0.073-1.101,0.125-1.683
		c0.025-0.285,0.069-0.767,0.13-1.443s0.143-1.437,0.246-2.28c0.102-0.843,0.264-1.705,0.485-2.584
		c0.221-0.881,0.426-1.695,0.614-2.443c0.022-0.088,0.053-0.156,0.077-0.24l-3.01-1.649c-0.135,0.257-0.267,0.524-0.396,0.8
		c-0.524,1.125-0.953,2.355-1.285,3.691c-0.332,1.337-0.642,2.585-0.93,3.745c-0.288,1.16-0.45,2.501-0.485,4.023
		c-0.891,0.083-1.729,0.292-2.514,0.624c-0.785,0.334-1.55,0.827-2.294,1.481c-0.332,0.292-0.624,0.603-0.897,0.923v13.562
		c0.369,0.104,0.768,0.162,1.205,0.162C93.086,33.775,93.624,33.685,94.159,33.505z M92.299,28.296c0-0.59,0.105-1.252,0.316-1.984
		s0.519-1.607,0.923-2.623s0.908-1.834,1.512-2.455c0.604-0.619,1.292-1.119,2.065-1.498c0.012-0.012,0.023,0.107,0.035,0.355
		s0.021,0.566,0.026,0.957c0.006,0.39,0.015,0.82,0.027,1.293c0.012,0.473,0.024,1.079,0.036,1.817s0.029,1.288,0.053,1.648
		s0.053,0.623,0.089,0.788c-0.27,0.604-0.569,1.144-0.897,1.621c-0.141,0.209-0.296,0.408-0.466,0.601s-0.349,0.364-0.537,0.515
		s-0.384,0.272-0.589,0.366c-0.206,0.093-0.414,0.14-0.625,0.14c-0.41,0-0.744-0.045-1.002-0.137s-0.457-0.211-0.598-0.357
		c-0.141-0.147-0.237-0.312-0.29-0.496S92.299,28.48,92.299,28.296z"/>
	<path fill="#555655" d="M121.175,30.66c-0.158,0.012-0.313,0.018-0.466,0.018c-0.188,0-0.363-0.006-0.527-0.018
		s-0.305-0.057-0.422-0.133c-0.117-0.078-0.211-0.202-0.281-0.374c-0.07-0.171-0.105-0.417-0.105-0.737
		c0-0.284,0.07-0.548,0.211-0.791c0.141-0.242,0.305-0.459,0.492-0.648s0.375-0.355,0.562-0.497
		c0.188-0.143,0.328-0.255,0.422-0.338c0.301-0.261,0.568-0.496,0.817-0.717c-0.248,0.202-0.507,0.408-0.793,0.62
		c-0.656,0.487-1.354,0.938-2.092,1.35s-1.497,0.756-2.276,1.031s-1.521,0.412-2.224,0.412c-0.224,0-0.433-0.022-0.626-0.068
		s-0.379-0.126-0.556-0.24c-0.176-0.115-0.35-0.275-0.521-0.481s-0.344-0.464-0.521-0.773c1.022-0.274,1.97-0.659,2.845-1.151
		c0.875-0.493,1.629-1.055,2.263-1.686c0.634-0.629,1.189-1.386,1.665-2.268c0.476-0.883,0.713-1.68,0.713-2.39
		c0-0.667-0.118-1.271-0.352-1.808c-0.235-0.539-0.561-0.998-0.977-1.379c-0.417-0.381-0.907-0.676-1.47-0.887
		s-1.173-0.316-1.83-0.316c-0.804,0-1.536,0.143-2.194,0.426c-0.659,0.283-1.253,0.665-1.784,1.145
		c-0.53,0.48-0.994,1.035-1.39,1.666c-0.396,0.631-0.726,1.293-0.987,1.986c-0.263,0.693-0.516,1.489-0.761,2.386
		c-0.245,0.896-0.367,1.668-0.367,2.315c0,0.346,0.038,0.679,0.072,1.014c0.062,0.624,0.16,1.236,0.338,1.822
		c0.159,0.523,0.378,1,0.629,1.45c0.181,0.325,0.373,0.643,0.602,0.931c0.547,0.686,1.231,1.23,2.051,1.637
		c0.821,0.405,1.778,0.607,2.873,0.607c0.704,0,1.398-0.08,2.084-0.244c0.686-0.162,1.348-0.38,1.986-0.651s1.248-0.582,1.828-0.933
		c0.575-0.346,1.111-0.699,1.611-1.058c-0.018-0.103-0.051-0.192-0.062-0.302C121.494,30.624,121.333,30.648,121.175,30.66z
		 M111.899,24.492c0.023-0.354,0.132-0.807,0.327-1.357c0.194-0.549,0.364-1.012,0.512-1.383c0.147-0.373,0.341-0.705,0.582-0.998
		c0.241-0.291,0.541-0.529,0.9-0.713s0.791-0.275,1.297-0.275c0.282,0,0.521,0.166,0.715,0.499c0.194,0.333,0.291,0.757,0.291,1.272
		c0,0.366-0.206,0.83-0.618,1.392s-0.832,1.009-1.262,1.341c-0.429,0.332-0.894,0.604-1.394,0.816
		c-0.5,0.212-0.962,0.318-1.385,0.318C111.864,25.152,111.875,24.847,111.899,24.492z"/>
	<path fill="#555655" d="M124.825,27.765l-1.571,1.65c0.067,0,0.138,0.023,0.211,0.063c0.534-0.476,1.053-0.979,1.556-1.515
		L124.825,27.765z"/>
	<path fill="#555655" d="M125.717,22.024c-0.328,0.438-0.611,0.817-0.851,1.138c-0.24,0.319-0.565,0.73-0.976,1.234
		s-0.82,0.945-1.23,1.324c-0.222,0.205-0.487,0.443-0.782,0.704c-0.249,0.221-0.517,0.456-0.817,0.717
		c-0.094,0.083-0.234,0.195-0.422,0.338c-0.188,0.142-0.375,0.308-0.562,0.497s-0.352,0.406-0.492,0.648
		c-0.141,0.243-0.211,0.507-0.211,0.791c0,0.32,0.035,0.566,0.105,0.737c0.07,0.172,0.164,0.296,0.281,0.374
		c0.117,0.076,0.258,0.121,0.422,0.133s0.34,0.018,0.527,0.018c0.152,0,0.308-0.006,0.466-0.018s0.319-0.036,0.483-0.072
		c0.011,0.109,0.044,0.199,0.062,0.302c0.081,0.471,0.217,0.896,0.448,1.245c0.281,0.426,0.647,0.771,1.099,1.034
		c0.451,0.264,0.976,0.457,1.573,0.58c0.596,0.123,1.241,0.185,1.932,0.185c0.961,0,1.979-0.104,3.051-0.312
		s2.135-0.495,3.188-0.856c1.055-0.361,2.059-0.78,3.014-1.255c0.086-0.042,0.158-0.089,0.242-0.132
		c-0.066-0.354-0.109-0.728-0.109-1.136c0-0.738,0.082-1.6,0.246-2.584c0.021-0.129,0.041-0.243,0.061-0.365
		c-0.418,0.221-0.836,0.441-1.238,0.631c-0.527,0.248-1.035,0.488-1.521,0.719c-0.486,0.231-0.939,0.489-1.361,0.773
		c0-0.758,0.031-1.51,0.096-2.257c0.064-0.746,0.053-1.333-0.035-1.759s-0.18-0.803-0.275-1.129
		c-0.096-0.325-0.188-0.633-0.277-0.924c-0.09-0.289-0.162-0.586-0.215-0.889c-0.025-0.135-0.023-0.301-0.037-0.448l-4.166-2.284
		c-0.186,0.245-0.363,0.479-0.52,0.689C126.444,21.05,126.045,21.585,125.717,22.024z M128.325,24.982
		c0.076,0.267,0.088,0.646,0.035,1.137c-0.053,0.492-0.059,0.904-0.018,1.236c0.041,0.331,0.062,0.656,0.062,0.977
		c0,0.367-0.035,0.72-0.105,1.057c-0.07,0.338-0.193,0.635-0.369,0.889c-0.176,0.255-0.414,0.459-0.713,0.613
		s-0.676,0.23-1.133,0.23c-0.375,0-0.709-0.088-1.002-0.266s-0.551-0.373-0.773-0.587c-0.223-0.213-0.419-0.409-0.589-0.587
		c-0.089-0.092-0.173-0.158-0.254-0.202c-0.074-0.04-0.145-0.063-0.211-0.063l1.571-1.65l3.298-3.467
		C128.182,24.488,128.249,24.716,128.325,24.982z"/>
	<path fill="#555655" d="M136.403,27.658c-0.164,0.984-0.246,1.846-0.246,2.584c0,0.408,0.043,0.781,0.109,1.136
		c0.02,0.104,0.031,0.215,0.057,0.315c0.111,0.439,0.297,0.811,0.555,1.115s0.594,0.543,1.01,0.713s0.93,0.254,1.539,0.254
		c0.68,0,1.396-0.123,2.152-0.369s1.498-0.553,2.225-0.922c0.664-0.338,1.279-0.709,1.861-1.104c-0.09-0.147-0.176-0.294-0.25-0.452
		c-0.242-0.504-0.398-1.04-0.477-1.604l-0.57-0.312c-0.475,0.364-0.943,0.686-1.408,0.949c-0.516,0.293-0.984,0.439-1.406,0.439
		c-0.363,0-0.604-0.154-0.721-0.465s-0.176-0.729-0.176-1.256c0-0.479,0.076-1.014,0.209-1.588l-3.977-2.18
		c-0.104,0.518-0.246,1.316-0.426,2.381C136.444,27.415,136.424,27.529,136.403,27.658z"/>
	<path fill="#555655" d="M153.483,48.822c0.445-0.375,0.848-0.834,1.205-1.379s0.646-1.09,0.869-1.635s0.42-1.141,0.59-1.791
		s0.287-1.234,0.352-1.75c0.066-0.516,0.133-1.041,0.201-1.574c0.029-0.236,0.07-0.572,0.129-1.008
		c0.141-1.514,0.27-2.545,0.387-3.096c0.035-0.17,0.086-0.318,0.141-0.457l-4.174-2.289l-0.033,0.195
		c-0.738,0.645-1.373,1.246-1.906,1.803s-1.211,1.297-2.031,2.223c-0.398,0.445-0.787,0.945-1.168,1.502s-0.656,0.988-0.826,1.293
		s-0.479,0.844-0.924,1.617c-0.773,1.383-1.113,2.689-1.02,3.92c0.059,0.656,0.221,1.23,0.484,1.723s0.609,0.875,1.037,1.15
		s0.893,0.48,1.396,0.615c0.219,0.059,0.449,0.1,0.686,0.133h1.828c0.412-0.057,0.809-0.141,1.178-0.281
		C152.504,49.502,153.038,49.197,153.483,48.822z M151.292,45.641c-0.141,0.211-0.305,0.406-0.492,0.588s-0.391,0.309-0.607,0.379
		s-0.465,0.105-0.746,0.105c-0.785,0-0.984-0.557-0.598-1.67c0.469-1.336,1.102-2.65,1.898-3.945s1.609-2.236,2.436-2.822
		c-0.02,0.162-0.066,0.543-0.139,1.139c-0.074,0.598-0.135,1.1-0.184,1.504c-0.051,0.406-0.127,0.779-0.232,1.119
		c-0.176,0.633-0.328,1.139-0.457,1.52s-0.273,0.771-0.432,1.17S151.432,45.43,151.292,45.641z"/>
	<path fill="#555655" d="M145.665,31.379c0.371,0.622,0.861,1.159,1.482,1.604c0.768,0.551,1.607,0.826,2.521,0.826
		c0.736,0,1.486-0.224,2.248-0.66l-6.979-3.826c0.078,0.563,0.234,1.1,0.477,1.604C145.489,31.085,145.575,31.232,145.665,31.379z"
		/>
</g>
<g>
	<path fill="none" d="M64.021,28.494c0.258-0.531,0.467-1.079,0.625-1.646c0.159-0.566,0.261-1.038,0.308-1.416l1.311-5.714
		c-0.48,0-0.949,0.119-1.406,0.357s-0.888,0.561-1.292,0.967s-0.776,0.871-1.116,1.394s-0.674,1.167-1.002,1.935
		c-0.328,0.767-0.56,1.44-0.694,2.021c-0.135,0.58-0.202,1.127-0.202,1.638c0,0.302,0.021,0.595,0.062,0.88
		c0.041,0.283,0.115,0.537,0.22,0.761s0.247,0.405,0.422,0.544c0.176,0.139,0.399,0.209,0.669,0.209c0.435,0,0.828-0.189,1.18-0.566
		C63.458,29.479,63.763,29.025,64.021,28.494z"/>
	<path fill="none" d="M56.375,30.712c-0.094,0.041-0.187,0.088-0.282,0.125l0.424,0.232c-0.029-0.065-0.068-0.121-0.095-0.189
		C56.401,30.828,56.394,30.767,56.375,30.712z"/>
	<path fill="#555655" d="M34.028,11.176c0.485-1.45,0.745-3.015,0.778-4.698c0.008-0.441,0.012-0.871,0.012-1.288
		c0-0.669-0.053-1.317-0.158-1.946c-0.105-0.627-0.278-1.18-0.519-1.654c-0.24-0.477-0.554-0.857-0.94-1.145
		c-0.261-0.194-0.573-0.299-0.908-0.361h-1.174c-0.517,0.098-1.023,0.301-1.517,0.623c-0.707,0.463-1.373,1.105-1.998,1.925
		c-0.625,0.82-1.199,1.793-1.724,2.918c-0.524,1.125-0.953,2.355-1.285,3.691c-0.332,1.337-0.642,2.585-0.93,3.745
		c-0.005,0.021-0.009,0.045-0.014,0.065l4.09,2.243c0.026-0.292,0.066-0.735,0.122-1.348c0.062-0.677,0.143-1.438,0.246-2.28
		c0.102-0.843,0.264-1.704,0.485-2.585c0.221-0.879,0.426-1.693,0.614-2.443c0.188-0.749,0.437-1.361,0.747-1.836
		c0.31-0.475,0.655-0.711,1.037-0.711c0.214,0,0.378,0.123,0.491,0.369c0.113,0.246,0.17,0.686,0.17,1.318
		c0,0.481-0.037,1.132-0.109,1.953c-0.061,0.621-0.167,1.277-0.319,1.969c-0.152,0.692-0.338,1.391-0.558,2.097
		s-0.441,1.417-0.665,2.134s-0.45,1.406-0.678,2.066c-0.016,0.045-0.034,0.091-0.05,0.136l2.549,1.397
		c0.277-0.682,0.533-1.367,0.764-2.057C33.062,14.058,33.542,12.625,34.028,11.176z"/>
	<path fill="#555655" d="M46.077,16.509c-0.275-0.205-0.671-0.307-1.187-0.307c-0.61,0-1.136,0.096-1.576,0.289
		s-0.837,0.484-1.189,0.871s-0.678,0.873-0.977,1.459s-0.61,1.271-0.934,2.057c-0.126,0.307-0.264,0.656-0.408,1.029l5.47,3
		l1.213-7.58C46.49,16.988,46.353,16.714,46.077,16.509z"/>
	<path fill="#555655" d="M56.053,28.779c0-0.701,0.102-1.423,0.261-2.155c-0.355,0.19-0.713,0.38-1.104,0.538
		c-0.504,0.205-0.949,0.309-1.336,0.309c-0.457,0-0.85-0.129-1.178-0.387s-0.604-0.539-0.826-0.844
		c-0.258-0.363-0.469-0.773-0.633-1.23c0.152-0.305,0.328-0.633,0.527-0.984c0.164-0.305,0.384-0.773,0.659-1.406
		s0.542-1.184,0.8-1.652c0.012-0.023,0.076-0.15,0.193-0.379s0.24-0.504,0.369-0.826s0.249-0.67,0.36-1.045s0.167-0.727,0.167-1.055
		c0-0.434-0.205-0.789-0.615-1.064s-0.949-0.412-1.617-0.412c-0.645,0-1.201,0.125-1.67,0.378c-0.469,0.252-0.773,0.542-0.914,0.87
		l-3.429,7.907l10.026,5.497c0.095-0.037,0.188-0.084,0.282-0.125C56.169,30.132,56.053,29.494,56.053,28.779z"/>
	<path fill="#555655" d="M33.481,18.345c-0.001,0.034-0.002,0.061-0.003,0.093l0.013,0.007
		C33.492,18.166,33.488,18.13,33.481,18.345z"/>
	<path fill="#555655" d="M38.377,16.507c-0.298-0.203-0.726-0.306-1.284-0.306l-0.457-0.034c-0.469,0-0.872,0.104-1.208,0.312
		c-0.336,0.208-0.627,0.471-0.875,0.789s-0.45,0.672-0.609,1.06c-0.043,0.106-0.066,0.204-0.105,0.309l4.46,2.445l0.524-3.765
		C38.824,16.98,38.675,16.71,38.377,16.507z"/>
	<path fill="#555655" d="M63.592,32.867c0.49-0.271,0.942-0.576,1.355-0.913c0.414-0.336,0.762-0.667,1.046-0.991
		c0.378,0.939,0.827,1.656,1.346,2.148c0.52,0.493,1.169,0.74,1.948,0.74c0.644,0,1.289-0.16,1.934-0.48
		c0.644-0.32,1.248-0.711,1.811-1.174c0.457-0.375,0.867-0.77,1.251-1.177c-0.025-0.307-0.054-0.61-0.054-0.931
		c0-0.516,0.029-1.117,0.088-1.803s0.138-1.408,0.237-2.17c0.015-0.112,0.036-0.229,0.051-0.342
		c-0.523,0.691-1.042,1.328-1.556,1.889c-0.246,0.268-0.507,0.525-0.782,0.775c-0.276,0.25-0.551,0.475-0.826,0.672
		c-0.276,0.197-0.548,0.357-0.817,0.479c-0.27,0.122-0.527,0.184-0.773,0.184c-0.329,0-0.542-0.152-0.642-0.455
		c-0.1-0.303-0.149-0.723-0.149-1.259c0-0.628,0.097-1.401,0.29-2.319c0.193-0.916,0.366-1.733,0.517-2.449
		c0.151-0.717,0.285-1.416,0.402-2.1c0.117-0.683,0.176-1.304,0.176-1.863c0-0.367-0.032-0.658-0.097-0.871
		s-0.155-0.379-0.273-0.498c-0.117-0.117-0.253-0.195-0.406-0.23c-0.153-0.035-0.318-0.053-0.495-0.053
		c-0.129,0-0.262,0.002-0.398,0.009c-0.136,0.006-0.268,0.009-0.397,0.009c-0.153,0-0.304-0.009-0.451-0.027
		c-0.147-0.018-0.292-0.056-0.433-0.115c-0.142-0.059-0.26-0.154-0.354-0.283c-0.094-0.131-0.191-0.264-0.292-0.4
		s-0.227-0.258-0.38-0.364c-0.153-0.106-0.366-0.159-0.637-0.159c-0.813,0-1.612,0.172-2.396,0.517
		c-0.784,0.345-1.529,0.809-2.237,1.392c-0.708,0.584-1.358,1.268-1.954,2.05c-0.596,0.782-1.152,1.711-1.671,2.786
		c-0.519,1.074-0.902,2.072-1.15,2.994c-0.049,0.184-0.071,0.361-0.11,0.542c-0.159,0.732-0.261,1.454-0.261,2.155
		c0,0.715,0.116,1.354,0.322,1.934c0.019,0.055,0.026,0.115,0.047,0.168c0.027,0.068,0.066,0.124,0.095,0.189l4.822,2.645
		c0.24-0.043,0.481-0.099,0.721-0.178C62.591,33.363,63.102,33.14,63.592,32.867z M61.257,30.214
		c-0.176-0.139-0.317-0.32-0.422-0.544s-0.179-0.478-0.22-0.761c-0.041-0.285-0.062-0.578-0.062-0.88
		c0-0.511,0.067-1.058,0.202-1.638c0.135-0.581,0.366-1.255,0.694-2.021c0.328-0.768,0.662-1.412,1.002-1.935
		s0.712-0.987,1.116-1.394s0.835-0.729,1.292-0.967s0.926-0.357,1.406-0.357l-1.311,5.714c-0.047,0.378-0.149,0.85-0.308,1.416
		c-0.158,0.566-0.367,1.114-0.625,1.646s-0.563,0.985-0.916,1.363c-0.352,0.377-0.745,0.566-1.18,0.566
		C61.656,30.423,61.433,30.353,61.257,30.214z"/>
	<path fill="#555655" d="M88.37,25.85c0.137-0.55,0.333-1.085,0.557-1.611c-0.125,0.058-0.243,0.118-0.373,0.173
		c-0.562,0.234-1.107,0.352-1.635,0.352c-0.188,0-0.366-0.035-0.536-0.105s-0.322-0.191-0.457-0.361s-0.243-0.395-0.325-0.676
		s-0.123-0.633-0.123-1.055c0-0.246,0.029-0.555,0.088-0.924s0.152-0.84,0.281-1.414s0.223-1.041,0.281-1.398
		s0.088-0.635,0.088-0.834c0-0.258-0.047-0.49-0.141-0.695s-0.22-0.377-0.378-0.518s-0.343-0.25-0.554-0.326
		s-0.428-0.113-0.65-0.113c-0.645,0-1.213,0.172-1.705,0.518s-0.932,0.771-1.318,1.275s-0.756,1.137-1.107,1.898
		s-0.645,1.377-0.879,1.846h-0.193c-0.023-0.598-0.006-1.295,0.053-2.092s0.088-1.412,0.088-1.846c0-0.363-0.009-0.65-0.026-0.861
		s-0.067-0.373-0.149-0.484s-0.208-0.182-0.378-0.211s-0.407-0.043-0.712-0.043c-0.27,0-0.495,0.014-0.677,0.043
		s-0.334,0.088-0.457,0.176s-0.231,0.209-0.325,0.361s-0.188,0.357-0.281,0.615c-0.152,0.387-0.305,0.879-0.457,1.477
		s-0.334,1.344-0.545,2.24s-0.384,1.74-0.519,2.531c-0.115,0.676-0.21,1.334-0.3,1.988c-0.015,0.112-0.037,0.229-0.051,0.342
		c-0.1,0.762-0.179,1.484-0.237,2.17s-0.088,1.287-0.088,1.803c0,0.32,0.029,0.624,0.054,0.931c0.011,0.142,0.008,0.292,0.025,0.431
		c0.053,0.439,0.158,0.832,0.316,1.178s0.384,0.621,0.677,0.826s0.68,0.309,1.16,0.309c0.211,0,0.404-0.039,0.58-0.115
		s0.34-0.207,0.492-0.395s0.302-0.432,0.448-0.73s0.302-0.676,0.466-1.133l3.146-8.771h0.281c0.094,0.738,0.217,1.467,0.369,2.188
		s0.387,1.371,0.703,1.951s0.744,1.049,1.283,1.406s1.248,0.537,2.127,0.537c0.492,0,0.976-0.074,1.45-0.221
		c0.099-0.03,0.188-0.08,0.286-0.113c-0.001-0.069-0.013-0.137-0.013-0.206C88.08,27.4,88.177,26.629,88.37,25.85z"/>
	<path fill="#555655" d="M89.214,23.583c-0.108,0.215-0.193,0.437-0.287,0.655c-0.224,0.526-0.42,1.062-0.557,1.611
		c-0.193,0.779-0.29,1.55-0.29,2.311c0,0.069,0.012,0.137,0.013,0.206c0.016,0.639,0.096,1.263,0.259,1.865
		c0.182,0.668,0.457,1.265,0.826,1.791c0.369,0.525,0.832,0.947,1.389,1.265c0.238,0.136,0.498,0.235,0.773,0.313V20.037
		c-0.34,0.398-0.646,0.812-0.896,1.255C89.993,22.089,89.583,22.853,89.214,23.583z"/>
</g>
<g>
	<path fill="none" d="M151.19,22.429c-1.113,1.945-1.723,3.264-1.828,3.955c-0.223,1.488-0.117,2.613,0.316,3.375
		c0.281,0.492,0.65,0.738,1.107,0.738c0.797,0,1.459-0.639,1.986-1.916c0.41-1.008,0.639-2.021,0.686-3.041l1.318-5.854
		C153.417,19.687,152.221,20.601,151.19,22.429z"/>
	<path fill="none" d="M105.334,4.536c-0.113-0.246-0.277-0.37-0.491-0.37c-0.381,0-0.727,0.238-1.037,0.713
		c-0.273,0.417-0.49,0.959-0.668,1.59l2.264,1.242c0.067-0.773,0.102-1.395,0.102-1.855C105.504,5.221,105.447,4.782,105.334,4.536z
		"/>
	<path fill="#555655" d="M108.668,5.265c0-0.67-0.053-1.318-0.158-1.945c-0.105-0.629-0.278-1.18-0.519-1.656
		c-0.24-0.475-0.554-0.856-0.94-1.145c-0.387-0.287-0.855-0.432-1.406-0.432c-0.754,0-1.485,0.232-2.192,0.695
		s-1.373,1.104-1.998,1.924c-0.47,0.617-0.912,1.322-1.325,2.111l3.009,1.65c0.178-0.631,0.395-1.173,0.668-1.59
		c0.31-0.475,0.655-0.713,1.037-0.713c0.214,0,0.378,0.124,0.491,0.37c0.113,0.246,0.17,0.686,0.17,1.319
		c0,0.461-0.035,1.082-0.102,1.855l2.963,1.624c0.168-0.89,0.271-1.813,0.291-2.78C108.664,6.113,108.668,5.683,108.668,5.265z"/>
	<path fill="#555655" d="M131.955,20.923c0.24-0.268,0.495-0.561,0.765-0.881c0.27-0.319,0.516-0.65,0.738-0.994
		s0.334-0.658,0.334-0.941c0-0.143-0.012-0.312-0.035-0.508c-0.023-0.195-0.105-0.381-0.246-0.559s-0.363-0.329-0.668-0.453
		c-0.305-0.125-0.738-0.188-1.302-0.188c-0.34,0-0.647,0.051-0.923,0.151s-0.527,0.231-0.756,0.392
		c-0.229,0.159-0.437,0.34-0.624,0.541s-0.357,0.409-0.51,0.622c-0.499,0.631-0.931,1.187-1.305,1.678l4.161,2.282
		c-0.016-0.182-0.044-0.348-0.044-0.549C131.577,21.388,131.714,21.189,131.955,20.923z"/>
	<path fill="#555655" d="M144.51,28.96c-0.05,0.039-0.1,0.071-0.15,0.109l0.562,0.309c-0.032-0.233-0.054-0.471-0.059-0.714
		C144.745,28.761,144.63,28.865,144.51,28.96z"/>
	<path fill="#555655" d="M141.314,24.955c0.11-0.668,0.317-1.475,0.619-2.422c0.302-0.946,0.53-1.721,0.685-2.322
		c0.153-0.603,0.291-1.139,0.41-1.609c0.121-0.471,0.182-0.836,0.182-1.094c0-0.305-0.087-0.547-0.26-0.729
		c-0.172-0.182-0.5-0.273-0.984-0.273c-0.265,0-0.561,0.033-0.889,0.098c-0.328,0.066-0.646,0.166-0.951,0.303
		c-0.305,0.137-0.578,0.311-0.819,0.524c-0.265,0.237-0.427,0.503-0.483,0.8c-0.105,0.422-0.379,1.334-0.824,2.732
		c-0.479,1.718-0.799,2.826-0.959,3.327c-0.036,0.096-0.091,0.323-0.162,0.678l3.977,2.181c0.017-0.07,0.022-0.133,0.041-0.203
		C141.064,26.285,141.204,25.623,141.314,24.955z"/>
	<path fill="#555655" d="M145.776,12.339c0.129-0.379,0.193-0.77,0.193-1.172c0-0.438-0.08-0.816-0.238-1.135
		c-0.158-0.32-0.371-0.577-0.641-0.772c-0.27-0.194-0.586-0.34-0.949-0.435s-0.75-0.143-1.16-0.143
		c-0.656,0-1.205,0.104-1.645,0.311s-0.791,0.462-1.055,0.764c-0.264,0.301-0.453,0.624-0.57,0.967
		c-0.117,0.344-0.176,0.65-0.176,0.923c0,0.816,0.246,1.47,0.738,1.96c0.492,0.492,1.254,0.736,2.285,0.736
		c0.598,0,1.109-0.091,1.537-0.274s0.783-0.423,1.064-0.719S145.647,12.717,145.776,12.339z"/>
	<path fill="#555655" d="M157.852,35.509c0.504-0.34,1.318-0.874,2.443-1.602c0.059-0.035,0.141-0.087,0.246-0.156
		c0.586-0.453,1.301-1.099,2.145-1.936c0.212-0.217,0.406-0.426,0.586-0.629c-0.029-0.336-0.059-0.671-0.059-1.023
		c0-0.773,0.047-1.666,0.141-2.68c0.035-0.375,0.076-0.778,0.117-1.18l-0.188-0.641c-1.746,2.829-3.311,4.764-4.693,5.803
		c-0.387,0.293-0.75,0.538-1.09,0.736c0.176-1.834,0.305-3.324,0.387-4.469c0.082-1.146,0.254-2.188,0.518-3.125
		s0.414-1.723,0.449-2.358c0.105-2.047,0.088-3.253-0.053-3.617c-0.082-0.212-0.158-0.382-0.229-0.512
		c-0.199-0.317-0.562-0.477-1.09-0.477l-0.775,0.018c-0.154,0-0.289-0.006-0.406-0.018c-0.119-0.013-0.225-0.036-0.318-0.071
		s-0.17-0.062-0.229-0.08s-0.123-0.062-0.193-0.133c-0.07-0.071-0.119-0.119-0.148-0.143s-0.08-0.086-0.15-0.187
		s-0.123-0.169-0.158-0.204c-0.281-0.344-0.727-0.516-1.336-0.516c-1.348,0-2.736,0.639-4.166,1.916
		c-0.984,0.879-1.787,1.914-2.408,3.104s-1.236,2.697-1.846,4.525c-0.342,1.001-0.501,1.936-0.484,2.808
		c0.005,0.243,0.026,0.48,0.059,0.714l6.986,3.83c0.521-0.299,1.046-0.694,1.578-1.197l-0.317,1.889l4.176,2.289
		C157.468,35.884,157.635,35.654,157.852,35.509z M153.458,25.541c-0.047,1.02-0.275,2.033-0.686,3.041
		c-0.527,1.277-1.189,1.916-1.986,1.916c-0.457,0-0.826-0.246-1.107-0.738c-0.434-0.762-0.539-1.887-0.316-3.375
		c0.105-0.691,0.715-2.01,1.828-3.955c1.031-1.828,2.227-2.742,3.586-2.742L153.458,25.541z"/>
	<path fill="#555655" d="M178.295,28.792c-0.023-0.012-0.293,0.182-0.809,0.58c-0.105,0.105-0.352,0.229-0.738,0.369
		c-0.258,0.105-0.457,0.158-0.598,0.158c-0.387,0-0.672-0.234-0.854-0.703s-0.271-1.066-0.271-1.793
		c0-0.434,0.025-0.908,0.078-1.424s0.121-1.037,0.203-1.564s0.172-1.125,0.271-1.793s0.191-1.213,0.273-1.635
		s0.148-0.785,0.201-1.09s0.08-0.521,0.08-0.65c0-0.867-0.174-1.547-0.52-2.039s-0.811-0.738-1.396-0.738s-1.119,0.117-1.6,0.352
		s-0.908,0.668-1.283,1.301c-0.082,0.141-0.205,0.357-0.369,0.65s-0.346,0.631-0.545,1.012s-0.414,0.779-0.643,1.195
		s-0.441,0.893-0.641,1.432s-0.375,0.953-0.527,1.24s-0.264,0.494-0.334,0.623h-0.352c0-0.082,0.018-0.242,0.053-0.482
		s0.078-0.604,0.131-1.09s0.109-0.92,0.168-1.301s0.113-0.75,0.166-1.107s0.098-0.686,0.133-0.984s0.053-0.537,0.053-0.713
		c0-0.645-0.123-1.16-0.369-1.547s-0.686-0.58-1.318-0.58s-1.135,0.182-1.504,0.545s-0.617,0.814-0.746,1.354
		c-0.164,0.691-0.334,1.523-0.51,2.496s-0.334,2.066-0.475,3.279c-0.089,0.764-0.164,1.475-0.234,2.16
		c-0.041,0.401-0.082,0.805-0.117,1.18c-0.094,1.014-0.141,1.906-0.141,2.68c0,0.353,0.029,0.688,0.059,1.023
		c0.01,0.111,0.007,0.23,0.02,0.34c0.053,0.439,0.158,0.832,0.316,1.178s0.385,0.621,0.678,0.826s0.68,0.307,1.16,0.307
		c0.387,0,0.727-0.088,1.02-0.264c0.281-0.164,0.545-0.492,0.791-0.984l4.605-9.141h0.281c-0.141,0.938-0.258,1.814-0.352,2.629
		s-0.141,1.572-0.141,2.275c0,1.793,0.219,3.156,0.658,4.088s0.982,1.396,1.627,1.396s1.26-0.094,1.846-0.281
		c0.223-0.059,0.791-0.293,1.705-0.703c0.375-0.164,1.307-0.645,2.795-1.441c1.031-0.551,1.582-0.855,1.652-0.914l0.746-0.566
		v-3.938c-1.234,0.822-2.307,1.523-3.207,2.097C178.723,28.57,178.331,28.804,178.295,28.792z"/>
</g>
</svg>
