<?xml version="1.0" encoding="utf-8"?>
<!-- Generator: Adobe Illustrator 16.0.0, SVG Export Plug-In . SVG Version: 6.00 Build 0)  -->
<!DOCTYPE svg PUBLIC "-//W3C//DTD SVG 1.1//EN" "http://www.w3.org/Graphics/SVG/1.1/DTD/svg11.dtd">
<svg version="1.1" id="Layer_1" xmlns="http://www.w3.org/2000/svg" xmlns:xlink="http://www.w3.org/1999/xlink" x="0px" y="0px"
	 width="900px" height="900px" viewBox="0 0 900 900" enable-background="new 0 0 900 900" xml:space="preserve">
<g>
	<g>
		<path fill="none" stroke="#2F2F2F" stroke-width="20" stroke-miterlimit="10" d="M700,690c0,5.5-3.182,13.182-7.071,17.071
			l-85.857,85.857C603.182,796.818,595.5,800,590,800H210c-5.5,0-13.182-3.182-17.071-7.071l-85.857-85.857
			C103.182,703.182,100,695.5,100,690v-80c0-5.5,3.182-13.182,7.071-17.071l185.857-185.857C296.818,403.182,300,395.5,300,390V110
			c0-5.5,4.5-10,10-10h180c5.5,0,10,4.5,10,10v280c0,5.5,3.182,13.182,7.071,17.071l185.857,185.857
			C696.818,596.818,700,604.5,700,610V690z"/>
	</g>
	<g>
		<line fill="none" stroke="#2F2F2F" stroke-width="20" stroke-miterlimit="10" x1="300" y1="200" x2="500" y2="200"/>
	</g>
	<g>
		<path fill="none" stroke="#2F2F2F" stroke-width="20" stroke-miterlimit="10" d="M690,200c5.5,0,10-4.5,10-10v-80
			c0-5.5-4.5-10-10-10h-80c-5.5,0-10,4.5-10,10v80c0,5.5,4.5,10,10,10H690z"/>
	</g>
	<g>
		<path fill="none" stroke="#2F2F2F" stroke-width="20" stroke-miterlimit="10" d="M800,310c0-5.5-4.5-10-10-10h-80
			c-5.5,0-10,4.5-10,10v80c0,5.5,4.5,10,10,10h80c5.5,0,10-4.5,10-10V310z"/>
	</g>
</g>
</svg>
