<?xml version="1.0" encoding="utf-8"?>
<!-- Generator: Adobe Illustrator 16.0.0, SVG Export Plug-In . SVG Version: 6.00 Build 0)  -->
<!DOCTYPE svg PUBLIC "-//W3C//DTD SVG 1.1//EN" "http://www.w3.org/Graphics/SVG/1.1/DTD/svg11.dtd">
<svg version="1.1" id="Layer_1" xmlns="http://www.w3.org/2000/svg" xmlns:xlink="http://www.w3.org/1999/xlink" x="0px" y="0px"
	 width="900px" height="900px" viewBox="0 0 900 900" enable-background="new 0 0 900 900" xml:space="preserve">
<g>
	<g>
		<path fill="none" stroke="#E71E63" stroke-width="20" stroke-miterlimit="10" d="M400,700H110c-5.5,0-10-4.5-10-10V110
			c0-5.5,4.5-10,10-10h380c5.5,0,10,4.5,10,10v80c0,5.5-4.5,10-10,10h-80c-5.5,0-5.5,0,0,0h380c5.5,0,10,4.5,10,10v580
			c0,5.5-4.5,10-10,10H410c-5.5,0-10-4.5-10-10V200"/>
	</g>
	<g>
		<line fill="none" stroke="#E71E63" stroke-width="20" stroke-miterlimit="10" x1="500" y1="300" x2="700" y2="300"/>
	</g>
	<g>
		<line fill="none" stroke="#E71E63" stroke-width="20" stroke-miterlimit="10" x1="500" y1="400" x2="700" y2="400"/>
	</g>
	<g>
		<line fill="none" stroke="#E71E63" stroke-width="20" stroke-miterlimit="10" x1="500" y1="500" x2="700" y2="500"/>
	</g>
	<g>
		<line fill="none" stroke="#E71E63" stroke-width="20" stroke-miterlimit="10" x1="500" y1="600" x2="700" y2="600"/>
	</g>
	<g>
		<line fill="none" stroke="#E71E63" stroke-width="20" stroke-miterlimit="10" x1="500" y1="700" x2="700" y2="700"/>
	</g>
</g>
</svg>
