<?xml version="1.0" encoding="utf-8"?>
<!-- Generator: Adobe Illustrator 16.0.0, SVG Export Plug-In . SVG Version: 6.00 Build 0)  -->
<!DOCTYPE svg PUBLIC "-//W3C//DTD SVG 1.1//EN" "http://www.w3.org/Graphics/SVG/1.1/DTD/svg11.dtd">
<svg version="1.1" id="Layer_1" xmlns="http://www.w3.org/2000/svg" xmlns:xlink="http://www.w3.org/1999/xlink" x="0px" y="0px"
	 width="900px" height="900px" viewBox="0 0 900 900" enable-background="new 0 0 900 900" xml:space="preserve">
<g>
	<path fill="none" stroke="#2F2F2F" stroke-width="20" stroke-miterlimit="10" d="M100,100v680c0,11,9,20,20,20h660c11,0,20-9,20-20
		V120c0-11-4.025-11.95-8.944-2.111l-82.111,164.223c-4.919,9.839-15.309,11.525-23.087,3.747l-71.715-71.716
		c-7.778-7.778-16.988-5.604-20.467,4.832l-87.352,262.053c-3.479,10.436-10.35,10.924-15.269,1.085l-82.111-164.223
		c-4.919-9.839-11.127-9.157-13.795,1.514l-90.299,361.195c-2.668,10.671-11.214,13.038-18.993,5.26l-71.716-71.715
		c-7.778-7.778-20.506-7.778-28.284,0L100,700"/>
</g>
</svg>
