<?xml version="1.0" encoding="utf-8"?>
<!-- Generator: Adobe Illustrator 16.0.0, SVG Export Plug-In . SVG Version: 6.00 Build 0)  -->
<!DOCTYPE svg PUBLIC "-//W3C//DTD SVG 1.1//EN" "http://www.w3.org/Graphics/SVG/1.1/DTD/svg11.dtd">
<svg version="1.1" id="Layer_1" xmlns="http://www.w3.org/2000/svg" xmlns:xlink="http://www.w3.org/1999/xlink" x="0px" y="0px"
	 width="900px" height="900px" viewBox="0 0 900 900" enable-background="new 0 0 900 900" xml:space="preserve">
<g>
	<g>
		<g>
			<path fill="none" stroke="#E71E63" stroke-width="20" stroke-miterlimit="10" d="M192.929,792.929
				C196.818,796.818,204.5,800,210,800h480c5.5,0,13.182-3.182,17.071-7.071l85.857-85.857C796.818,703.182,800,695.5,800,690V210
				c0-5.5-3.182-13.182-7.071-17.071l-85.857-85.857C703.182,103.182,695.5,100,690,100H210c-5.5,0-13.182,3.182-17.071,7.071
				l-85.857,85.857C103.182,196.818,100,204.5,100,210v480c0,5.5,3.182,13.182,7.071,17.071L192.929,792.929z"/>
		</g>
		<g>
			<path fill="none" stroke="#E71E63" stroke-width="20" stroke-miterlimit="10" d="M500,700V510c0-5.5-4.5-10-10-10h-80
				c-5.5,0-10,4.5-10,10v180c0,5.5,4.5,10,10,10h80c5.5,0,10-4.5,10-10v-80c0-5.5-4.5-10-10-10h-80c-5.5,0-10-4.5-10-10v-80
				c0-5.5-3.182-13.182-7.071-17.071l-85.857-85.857C303.182,403.182,300,395.5,300,390v-80c0-5.5,3.182-13.182,7.071-17.071
				l85.857-85.857C396.818,203.182,404.5,200,410,200h80c5.5,0,13.182,3.182,17.071,7.071l85.857,85.857
				C596.818,296.818,600,304.5,600,310v80c0,5.5-3.182,13.182-7.071,17.071L500,500"/>
		</g>
		<g>
			<path fill="none" stroke="#E71E63" stroke-width="20" stroke-miterlimit="10" d="M400,400v-90c0-5.5,4.5-10,10-10h80
				c5.5,0,10-4.5,10-10v-90"/>
		</g>
	</g>
</g>
</svg>
