<?xml version="1.0" encoding="utf-8"?>
<!-- Generator: Adobe Illustrator 16.0.0, SVG Export Plug-In . SVG Version: 6.00 Build 0)  -->
<!DOCTYPE svg PUBLIC "-//W3C//DTD SVG 1.1//EN" "http://www.w3.org/Graphics/SVG/1.1/DTD/svg11.dtd">
<svg version="1.1" id="Layer_1" xmlns="http://www.w3.org/2000/svg" xmlns:xlink="http://www.w3.org/1999/xlink" x="0px" y="0px"
	 width="900px" height="900px" viewBox="0 0 900 900" enable-background="new 0 0 900 900" xml:space="preserve">
<g>
	<path fill="none" stroke="#8AC440" stroke-width="20" stroke-miterlimit="10" d="M290,100c5.5,0,10,4.5,10,10v480
		c0,5.5,3.182,6.818,7.071,2.929l85.857-85.857C396.818,503.182,404.5,500,410,500h80c5.5,0,13.182,3.182,17.071,7.071
		l85.857,85.857c3.89,3.89,7.071,2.571,7.071-2.929V110c0-5.5,4.5-10,10-10h180c5.5,0,10,4.5,10,10v580
		c0,5.5-3.182,13.182-7.071,17.071l-85.857,85.857C703.182,796.818,695.5,800,690,800h-80c-5.5,0-13.182-3.182-17.071-7.071
		l-85.857-85.857C503.182,703.182,495.5,700,490,700h-80c-5.5,0-13.182,3.182-17.071,7.071l-85.857,85.857
		C303.182,796.818,295.5,800,290,800h-80c-5.5,0-13.182-3.182-17.071-7.071l-85.857-85.857C103.182,703.182,100,695.5,100,690V110
		c0-5.5,4.5-10,10-10H290z"/>
</g>
</svg>
